<svg xmlns="http://www.w3.org/2000/svg" xmlns:xlink="http://www.w3.org/1999/xlink" xmlns:lucid="lucid" width="1800" height="1858"><g transform="translate(-50 1826)" lucid:page-tab-id="0_0"><path d="M0-1825.76h1889.76V5541.3H0z" fill="#fff"/><path d="M420-1434c0-3.3 2.7-6 6-6h148c3.3 0 6 2.7 6 6v48c0 3.3-2.7 6-6 6H426c-3.3 0-6-2.7-6-6z" stroke="#5e5e5e" stroke-width="3" fill="#fff"/><use xlink:href="#a" transform="matrix(1,0,0,1,425,-1435) translate(39.19753086419753 30.27777777777778)"/><use xlink:href="#b" transform="matrix(1,0,0,1,425,-1435) translate(76.23456790123457 30.27777777777778)"/><path d="M220-1204c0-3.3 2.7-6 6-6h148c3.3 0 6 2.7 6 6v48c0 3.3-2.7 6-6 6H226c-3.3 0-6-2.7-6-6z" stroke="#5e5e5e" stroke-width="3" fill="#fff"/><path d="M236-1210v60m128-60v60" stroke="#5e5e5e" stroke-width="3" fill="none"/><use xlink:href="#a" transform="matrix(1,0,0,1,245,-1205) translate(12.438271604938272 29.444444444444443)"/><use xlink:href="#c" transform="matrix(1,0,0,1,245,-1205) translate(49.47530864197531 29.444444444444443)"/><path d="M420-1204c0-3.3 2.7-6 6-6h148c3.3 0 6 2.7 6 6v48c0 3.3-2.7 6-6 6H426c-3.3 0-6-2.7-6-6z" stroke="#5e5e5e" stroke-width="3" fill="#fff"/><path d="M436-1210v60m128-60v60" stroke="#5e5e5e" stroke-width="3" fill="none"/><use xlink:href="#a" transform="matrix(1,0,0,1,445,-1205) translate(12.438271604938272 29.444444444444443)"/><use xlink:href="#c" transform="matrix(1,0,0,1,445,-1205) translate(49.47530864197531 29.444444444444443)"/><path d="M220-1104c0-3.3 2.7-6 6-6h148c3.3 0 6 2.7 6 6v48c0 3.3-2.7 6-6 6H226c-3.3 0-6-2.7-6-6z" stroke="#5e5e5e" stroke-width="3" fill="#fff"/><use xlink:href="#d" transform="matrix(1,0,0,1,232,-1098) translate(11.302469135802475 22.27777777777778)"/><use xlink:href="#e" transform="matrix(1,0,0,1,232,-1098) translate(70.5 22.27777777777778)"/><path d="M420-1112.67c0-3.3 2.7-6 6-6h148c3.3 0 6 2.7 6 6v65.34c0 3.3-2.7 6-6 6H426c-3.3 0-6-2.7-6-6z" stroke="#5e5e5e" stroke-width="3" fill="#fff"/><use xlink:href="#f" transform="matrix(1,0,0,1,432,-1106.6666666666667) translate(41.48765432098766 17.77777777777778)"/><use xlink:href="#g" transform="matrix(1,0,0,1,432,-1106.6666666666667) translate(26.95061728395062 44.44444444444444)"/><path d="M300-1147.5v17.5" stroke="#5e5e5e" stroke-width="2" fill="none"/><path d="M301-1147.47h-2v-1.03h2z" fill="#5e5e5e"/><path d="M300-1114.74l-4.64-14.26h9.28z" stroke="#5e5e5e" stroke-width="2" fill="#5e5e5e"/><path d="M500-1147.5v8.83" stroke="#5e5e5e" stroke-width="2" fill="none"/><path d="M501-1147.47h-2v-1.03h2z" fill="#5e5e5e"/><path d="M500-1123.4l-4.64-14.27h9.28z" stroke="#5e5e5e" stroke-width="2" fill="#5e5e5e"/><path d="M400-1409H166.13l-2.64.7-1.8 1.8-.7 2.63v387.74l.7 2.64 1.8 1.8 2.63.7h127.74l2.64-.7 1.8-1.8.7-2.63v-31.37h2v31.63l-.92 3.42-2.53 2.53-3.42.92H165.87l-3.42-.92-2.53-2.53-.92-3.42v-388.26l.92-3.42 2.53-2.53 3.42-.92H400z" fill="#5e5e5e"/><path d="M301-1047.47h-2v-1.03h2zM415.26-1410l-14.26 4.64v-9.28z" fill="#5e5e5e"/><path d="M418.5-1410l-18.5 6v-12zm-16.5 3.26l10.03-3.26-10.03-3.26z" fill="#5e5e5e"/><path d="M620-854c0-3.3 2.7-6 6-6h148c3.3 0 6 2.7 6 6v48c0 3.3-2.7 6-6 6H626c-3.3 0-6-2.7-6-6z" stroke="#5e5e5e" stroke-width="3" fill="#fff"/><path d="M636-860v60m128-60v60" stroke="#5e5e5e" stroke-width="3" fill="none"/><use xlink:href="#a" transform="matrix(1,0,0,1,645,-855) translate(11.820987654320987 29.444444444444443)"/><use xlink:href="#h" transform="matrix(1,0,0,1,645,-855) translate(48.858024691358025 29.444444444444443)"/><path d="M694.5-747.6c3.04-1.32 7.96-1.32 11 0l69 30.2c3.04 1.32 3.04 3.48 0 4.8l-69 30.2c-3.04 1.32-7.96 1.32-11 0l-69-30.2c-3.04-1.32-3.04-3.48 0-4.8z" stroke="#5e5e5e" stroke-width="3" fill="#fff"/><use xlink:href="#i" transform="matrix(1,0,0,1,625,-745) translate(25.653148148148144 33.78777777777778)"/><path d="M700-797.5v29.05" stroke="#5e5e5e" stroke-width="2" fill="none"/><path d="M701-797.47h-2v-1.03h2z" fill="#5e5e5e"/><path d="M700-753.2l-4.64-14.25h9.28z" stroke="#5e5e5e" stroke-width="2" fill="#5e5e5e"/><path d="M880-740.67c0-3.3 2.7-6 6-6h148c3.3 0 6 2.7 6 6v51.34c0 3.3-2.7 6-6 6H886c-3.3 0-6-2.7-6-6z" stroke="#5e5e5e" stroke-width="3" fill="#fff"/><path d="M896-746.67v63.34m128-63.34v63.34" stroke="#5e5e5e" stroke-width="3" fill="none"/><use xlink:href="#j" transform="matrix(1,0,0,1,905.0000000000001,-741.6666666666666) translate(5.771604938271608 31.444444444444443)"/><use xlink:href="#k" transform="matrix(1,0,0,1,905.0000000000001,-741.6666666666666) translate(48.858024691358025 31.444444444444443)"/><path d="M806.2-714h-27.04v-2h27.05zm53.8 0h-23.18v-2H860z" fill="#5e5e5e"/><path d="M779.2-714h-1.48l.8-1.83-.18-.17h.85zM875.26-715L861-710.36v-9.28z" fill="#5e5e5e"/><path d="M878.5-715l-18.5 6v-12zm-16.5 3.26l10.03-3.26-10.03-3.26z" fill="#5e5e5e"/><use xlink:href="#l" transform="matrix(1,0,0,1,806.2054884495151,-725.6666666666666) translate(0 14.222222222222223)"/><path d="M701-650h-2v-2.3h2zm0-23.63h-2v-5.42h2z" fill="#5e5e5e"/><path d="M701-679.02h-2v-1l2-.05zM700-634.74L695.36-649h9.28z" fill="#5e5e5e"/><path d="M700-631.5l-6-18.5h12zm-3.26-16.5l3.26 10.03 3.26-10.03z" fill="#5e5e5e"/><use xlink:href="#m" transform="matrix(1,0,0,1,688.1975308641976,-673.6336683351234) translate(0 14.222222222222223)"/><path d="M620-524c0-3.3 2.7-6 6-6h148c3.3 0 6 2.7 6 6v51.33c0 3.32-2.7 6-6 6H626c-3.3 0-6-2.68-6-6z" stroke="#5e5e5e" stroke-width="3" fill="#fff"/><path d="M636-530v63.33M764-530v63.33" stroke="#5e5e5e" stroke-width="3" fill="none"/><use xlink:href="#n" transform="matrix(1,0,0,1,645,-525.0000000000001) translate(1.327160493827165 31.444444444444443)"/><use xlink:href="#o" transform="matrix(1,0,0,1,645,-525.0000000000001) translate(56.88271604938272 31.444444444444443)"/><path d="M620-426c0-3.3 2.7-6 6-6h148c3.3 0 6 2.7 6 6v51.33c0 3.32-2.7 6-6 6H626c-3.3 0-6-2.68-6-6z" stroke="#5e5e5e" stroke-width="3" fill="#fff"/><use xlink:href="#p" transform="matrix(1,0,0,1,625,-427.00000000000017) translate(55.308641975308646 31.27777777777778)"/><path d="M700-464.17V-452" stroke="#5e5e5e" stroke-width="2" fill="none"/><path d="M701-464.14h-2v-1.03h2z" fill="#5e5e5e"/><path d="M700-436.74L695.36-451h9.28z" stroke="#5e5e5e" stroke-width="2" fill="#5e5e5e"/><path d="M620-324c0-3.3 2.7-6 6-6h148c3.3 0 6 2.7 6 6v51.33c0 3.32-2.7 6-6 6H626c-3.3 0-6-2.68-6-6z" stroke="#5e5e5e" stroke-width="3" fill="#fff"/><path d="M636-330v63.33M764-330v63.33" stroke="#5e5e5e" stroke-width="3" fill="none"/><use xlink:href="#q" transform="matrix(1,0,0,1,645,-324.99999999999994) translate(0.12345679012345556 31.444444444444443)"/><use xlink:href="#o" transform="matrix(1,0,0,1,645,-324.99999999999994) translate(58.08641975308642 31.444444444444443)"/><path d="M700-366.17V-350" stroke="#5e5e5e" stroke-width="2" fill="none"/><path d="M701-366.14h-2v-1.03h2z" fill="#5e5e5e"/><path d="M700-334.74L695.36-349h9.28z" stroke="#5e5e5e" stroke-width="2" fill="#5e5e5e"/><path d="M620-122.67c0-3.3 2.7-6 6-6h148c3.3 0 6 2.7 6 6v51.34c0 3.3-2.7 6-6 6H626c-3.3 0-6-2.7-6-6z" stroke="#5e5e5e" stroke-width="3" fill="#fff"/><use xlink:href="#p" transform="matrix(1,0,0,1,625,-123.66666666666643) translate(55.308641975308646 31.27777777777778)"/><path d="M617.5-97H486c-3.3 0-6-2.7-6-6v-851c0-3.3 2.7-6 6-6h117.34" stroke="#5e5e5e" stroke-width="2" fill="none"/><path d="M618.5-96h-1.03v-2h1.03z" fill="#5e5e5e"/><path d="M618.6-960l-14.26 4.64v-9.28z" stroke="#5e5e5e" stroke-width="2" fill="#5e5e5e"/><path d="M620-624c0-3.3 2.7-6 6-6h148c3.3 0 6 2.7 6 6v51.33c0 3.32-2.7 6-6 6H626c-3.3 0-6-2.68-6-6z" stroke="#5e5e5e" stroke-width="3" fill="#fff"/><path d="M636-630v63.33M764-630v63.33" stroke="#5e5e5e" stroke-width="3" fill="none"/><use xlink:href="#r" transform="matrix(1,0,0,1,645,-625.0000000000001) translate(5.740740740740748 31.444444444444443)"/><use xlink:href="#s" transform="matrix(1,0,0,1,645,-625.0000000000001) translate(55.061728395061735 31.444444444444443)"/><path d="M700-564.17V-550" stroke="#5e5e5e" stroke-width="2" fill="none"/><path d="M701-564.14h-2v-1.03h2z" fill="#5e5e5e"/><path d="M700-534.74L695.36-549h9.28z" stroke="#5e5e5e" stroke-width="2" fill="#5e5e5e"/><path d="M620-224c0-3.3 2.7-6 6-6h148c3.3 0 6 2.7 6 6v51.33c0 3.32-2.7 6-6 6H626c-3.3 0-6-2.68-6-6z" stroke="#5e5e5e" stroke-width="3" fill="#fff"/><path d="M636-230v63.33M764-230v63.33" stroke="#5e5e5e" stroke-width="3" fill="none"/><use xlink:href="#t" transform="matrix(1,0,0,1,645,-224.99999999999991) translate(6.327160493827165 31.444444444444443)"/><use xlink:href="#s" transform="matrix(1,0,0,1,645,-224.99999999999991) translate(54.47530864197531 31.444444444444443)"/><path d="M700-264.17V-250" stroke="#5e5e5e" stroke-width="2" fill="none"/><path d="M701-264.14h-2v-1.03h2z" fill="#5e5e5e"/><path d="M700-234.74L695.36-249h9.28z" stroke="#5e5e5e" stroke-width="2" fill="#5e5e5e"/><path d="M700-164.17v15.5" stroke="#5e5e5e" stroke-width="2" fill="none"/><path d="M701-164.14h-2v-1.03h2z" fill="#5e5e5e"/><path d="M700-133.4l-4.64-14.27h9.28z" stroke="#5e5e5e" stroke-width="2" fill="#5e5e5e"/><path d="M1008-650c17.67 0 32 14.18 32 31.67 0 17.5-14.33 31.66-32 31.66h-96c-17.67 0-32-14.17-32-31.66 0-17.5 14.33-31.67 32-31.67z" stroke="#5e5e5e" stroke-width="3" fill="#fff"/><use xlink:href="#u" transform="matrix(1,0,0,1,885.0000000000001,-645.0000000000001) translate(51.60493827160494 31.27777777777778)"/><path d="M960-680.83V-670" stroke="#5e5e5e" stroke-width="2" fill="none"/><path d="M961-680.8h-2v-1.03h2z" fill="#5e5e5e"/><path d="M960-654.74L955.36-669h9.28z" stroke="#5e5e5e" stroke-width="2" fill="#5e5e5e"/><path d="M1289.5-1748.33c17.67 0 32 14.17 32 31.66 0 17.5-14.33 31.67-32 31.67h-96c-17.67 0-32-14.18-32-31.67 0-17.5 14.33-31.66 32-31.66z" stroke="#5e5e5e" stroke-width="3" fill="#fff"/><use xlink:href="#a" transform="matrix(1,0,0,1,1166.5,-1743.3333333333333) translate(32.44327160493827 17.77777777777778)"/><use xlink:href="#v" transform="matrix(1,0,0,1,1166.5,-1743.3333333333333) translate(69.48030864197531 17.77777777777778)"/><use xlink:href="#w" transform="matrix(1,0,0,1,1166.5,-1743.3333333333333) translate(39.727222222222224 44.44444444444444)"/><path d="M1289.5-1328.33c17.67 0 32 13.43 32 30s-14.33 30-32 30h-96c-17.67 0-32-13.43-32-30s14.33-30 32-30z" stroke="#5e5e5e" stroke-width="3" fill="#fff"/><use xlink:href="#x" transform="matrix(1,0,0,1,1166.5,-1323.3333333333333) translate(29.35685185185185 17.77777777777778)"/><use xlink:href="#y" transform="matrix(1,0,0,1,1166.5,-1323.3333333333333) translate(35.52969135802469 17.77777777777778)"/><use xlink:href="#z" transform="matrix(1,0,0,1,1166.5,-1323.3333333333333) translate(72.56672839506173 17.77777777777778)"/><use xlink:href="#A" transform="matrix(1,0,0,1,1166.5,-1323.3333333333333) translate(51.609938271604946 44.44444444444444)"/><path d="M1161.5-1542.33c0-3.32 2.7-6 6-6h148c3.3 0 6 2.68 6 6v48c0 3.3-2.7 6-6 6h-148c-3.3 0-6-2.7-6-6z" stroke="#5e5e5e" stroke-width="3" fill="#fff"/><use xlink:href="#a" transform="matrix(1,0,0,1,1173.5,-1536.3333333333333) translate(32.19753086419753 22.27777777777778)"/><use xlink:href="#b" transform="matrix(1,0,0,1,1173.5,-1536.3333333333333) translate(69.23456790123457 22.27777777777778)"/><path d="M1340-1322.33c0-3.32 2.7-6 6-6h148c3.3 0 6 2.68 6 6v48c0 3.3-2.7 6-6 6h-148c-3.3 0-6-2.7-6-6z" stroke="#5e5e5e" stroke-width="3" fill="#fff"/><use xlink:href="#B" transform="matrix(1,0,0,1,1352,-1316.3333333333333) translate(7.567901234567898 22.27777777777778)"/><use xlink:href="#C" transform="matrix(1,0,0,1,1352,-1316.3333333333333) translate(87.81481481481481 22.27777777777778)"/><path d="M1539.05-1518.4l2.53 2.52.92 3.4v208.28l-.92 3.4-2.53 2.54-3.42.93h-33.13v-2h32.87l2.64-.72 1.8-1.77.7-2.65v-207.73l-.7-2.64-1.8-1.78-2.63-.7H1341.5v-2h194.13z" fill="#5e5e5e"/><path d="M1502.53-1297.33h-1.03v-2h1.03zM1340.5-1513.7l-14.26-4.63 14.26-4.64z" fill="#5e5e5e"/><path d="M1341.5-1512.32l-18.5-6 18.5-6.03zm-12.03-6l10.03 3.25v-6.52z" fill="#5e5e5e"/><path d="M1161.5-1642.33c0-3.32 2.7-6 6-6h148c3.3 0 6 2.68 6 6v48c0 3.3-2.7 6-6 6h-148c-3.3 0-6-2.7-6-6z" stroke="#5e5e5e" stroke-width="3" fill="#fff"/><use xlink:href="#D" transform="matrix(1,0,0,1,1173.5,-1636.3333333333333) translate(19.327160493827165 22.27777777777778)"/><use xlink:href="#E" transform="matrix(1,0,0,1,1173.5,-1636.3333333333333) translate(73.5246913580247 22.27777777777778)"/><path d="M400-1409H166.13l-2.64.7-1.8 1.8-.7 2.63v387.74l.7 2.64 1.8 1.8 2.63.7h327.74l2.64-.7 1.8-1.8.7-2.63v-22.7h2v22.96l-.92 3.42-2.53 2.53-3.42.92H165.87l-3.42-.92-2.53-2.53-.92-3.42v-388.26l.92-3.42 2.53-2.53 3.42-.92H400z" fill="#5e5e5e"/><path d="M501-1038.8h-2v-1.03h2zM415.26-1410l-14.26 4.64v-9.28z" fill="#5e5e5e"/><path d="M418.5-1410l-18.5 6v-12zm-16.5 3.26l10.03-3.26-10.03-3.26z" fill="#5e5e5e"/><path d="M1241.5-1682.5v14.16" stroke="#5e5e5e" stroke-width="2" fill="none"/><path d="M1242.5-1682.47h-2v-1.03h2z" fill="#5e5e5e"/><path d="M1241.5-1653.07l-4.64-14.27h9.28z" stroke="#5e5e5e" stroke-width="2" fill="#5e5e5e"/><path d="M1241.5-1585.83v17.5" stroke="#5e5e5e" stroke-width="2" fill="none"/><path d="M1242.5-1585.8h-2v-1.03h2z" fill="#5e5e5e"/><path d="M1241.5-1553.07l-4.64-14.27h9.28z" stroke="#5e5e5e" stroke-width="2" fill="#5e5e5e"/><path d="M548-1740c17.67 0 32 13.43 32 30s-14.33 30-32 30h-96c-17.67 0-32-13.43-32-30s14.33-30 32-30z" stroke="#5e5e5e" stroke-width="3" fill="#fff"/><use xlink:href="#F" transform="matrix(1,0,0,1,425,-1735) translate(51.574074074074076 30.27777777777778)"/><path d="M1235.2-1444.73c2.65-2 6.95-2 9.6 0l30.4 22.8c2.65 1.98 2.65 5.2 0 7.2l-30.4 22.8c-2.65 1.98-6.95 1.98-9.6 0l-30.4-22.8c-2.65-2-2.65-5.22 0-7.2z" stroke="#5e5e5e" stroke-width="3" fill="#fff"/><use xlink:href="#G" transform="matrix(1,0,0,1,1205,-1443.3333333333333) translate(17.721049382716053 30.27777777777778)"/><path d="M1241.5-1485.83v19.7" stroke="#5e5e5e" stroke-width="2" fill="none"/><path d="M1242.5-1485.8h-2v-1.03h2z" fill="#5e5e5e"/><path d="M1241.5-1450.86l-4.64-14.27h9.28z" stroke="#5e5e5e" stroke-width="2" fill="#5e5e5e"/><path d="M1200.4-1419.33v2h-56.73v-2zm-58.9-198h-15.37l-2.64.7-1.8 1.8-.7 2.63v183.2h-2v-183.47l.92-3.4 2.53-2.54 3.42-.93h15.63z" fill="#5e5e5e"/><path d="M1201.28-1418.94l.28 1.6h-1.2v-2h1.1zM1156.76-1618.33l-14.26 4.63v-9.27z" fill="#5e5e5e"/><path d="M1160-1618.33l-18.5 6v-12.02zm-16.5 3.26l10.03-3.26-10.03-3.26z" fill="#5e5e5e"/><use xlink:href="#H" transform="matrix(1,0,0,1,1100.31102353198,-1429) translate(0 14.222222222222223)"/><path d="M1241-1348.34h-2v-10.88h2zm0-32.22h-2v-7.44h2z" fill="#5e5e5e"/><path d="M1241-1388.98v1h-2v-1.05zM1240-1333.07l-4.64-14.27h9.28z" fill="#5e5e5e"/><path d="M1240-1329.83l-6-18.5h12zm-3.26-16.5l3.26 10.02 3.26-10.04z" fill="#5e5e5e"/><use xlink:href="#I" transform="matrix(1,0,0,1,1217.3333333333333,-1380.557270710055) translate(0 14.222222222222223)"/><path d="M1421-1348.34h-2v-58.55h2zm-141.4-69v-2h120.7v2z" fill="#5e5e5e"/><path d="M1279.64-1417.33h-1.1l.18-.4-.28-1.6h1.2zM1420-1333.07l-4.64-14.27h9.28z" fill="#5e5e5e"/><path d="M1420-1329.83l-6-18.5h12zm-3.26-16.5l3.26 10.02 3.26-10.04z" fill="#5e5e5e"/><use xlink:href="#J" transform="matrix(1,0,0,1,1400.2962962962963,-1428.2225466877521) translate(0 14.222222222222223)"/><path d="M495.2-1356.4c2.65-2 6.95-2 9.6 0l30.4 22.8c2.65 2 2.65 5.2 0 7.2l-30.4 22.8c-2.65 2-6.95 2-9.6 0l-30.4-22.8c-2.65-2-2.65-5.2 0-7.2z" stroke="#5e5e5e" stroke-width="3" fill="#fff"/><use xlink:href="#G" transform="matrix(1,0,0,1,465,-1355) translate(17.721049382716053 30.27777777777778)"/><path d="M500-1377.5v-.33" stroke="#5e5e5e" stroke-width="2" fill="none"/><path d="M501-1377.47h-2v-1.03h2z" fill="#5e5e5e"/><path d="M500-1362.57l-4.64-14.26h9.28z" stroke="#5e5e5e" stroke-width="2" fill="#5e5e5e"/><path d="M301-1230h-2v-29.33h2zm200-45.87l-.92 3.42-2.53 2.53-3.42.92h-170.9v-2h170.64l2.64-.7 1.8-1.8.7-2.63v-23.54h2z" fill="#5e5e5e"/><path d="M501-1300.65v1h-2v-1.04zM300-1214.74l-4.64-14.26h9.28z" fill="#5e5e5e"/><path d="M300-1211.5l-6-18.5h12zm-3.26-16.5l3.26 10.03 3.26-10.03z" fill="#5e5e5e"/><use xlink:href="#K" transform="matrix(1,0,0,1,277.25065254237177,-1280.6666666666667) translate(0 14.222222222222223)"/><path d="M501-1230h-2v-9.06h2zm0-30.4h-2v-39.27h2z" fill="#5e5e5e"/><path d="M501-1300.65v1h-2v-1.04zM500-1214.74l-4.64-14.26h9.28z" fill="#5e5e5e"/><path d="M500-1211.5l-6-18.5h12zm-3.26-16.5l3.26 10.03 3.26-10.03z" fill="#5e5e5e"/><use xlink:href="#L" transform="matrix(1,0,0,1,470.641975308642,-1260.3975480621605) translate(0 14.222222222222223)"/><path d="M701-1230h-2v-29.33h2zm-199.3-43.5l1.8 1.8 2.63.7h172.53v2h-172.8l-3.4-.92-2.54-2.53-.92-3.42v-23.8h2v23.54z" fill="#5e5e5e"/><path d="M501-1300.65v1h-2v-1.04zM700-1214.74l-4.64-14.26h9.28z" fill="#5e5e5e"/><path d="M700-1211.5l-6-18.5h12zm-3.26-16.5l3.26 10.03 3.26-10.03z" fill="#5e5e5e"/><use xlink:href="#M" transform="matrix(1,0,0,1,678.6634646049876,-1280.6666666666667) translate(0 14.222222222222223)"/><path d="M599.35-1329H539.6v-2h59.75zm19.7-81.08l2.53 2.53.92 3.42v63.46h-2v-63.2l-.7-2.64-1.8-1.8-2.63-.7H600v-2h15.63z" fill="#5e5e5e"/><path d="M539.64-1329h-1.1l.18-.4-.28-1.6h1.2zM599-1405.36l-14.26-4.64 14.26-4.64z" fill="#5e5e5e"/><path d="M600-1404l-18.5-6 18.5-6zm-12.03-6l10.03 3.26v-6.52z" fill="#5e5e5e"/><use xlink:href="#N" transform="matrix(1,0,0,1,599.3518518518517,-1340.6666666666667) translate(0 14.222222222222223)"/><path d="M1364-1424.2l-.92 3.4-2.53 2.54-3.42.93h-77.52v-2h77.27l2.64-.72 1.8-1.77.7-2.65v-30.03h2zm-3.45-94.2l2.53 2.52.92 3.4v36.64h-2v-36.36l-.7-2.64-1.8-1.78-2.63-.7h-15.37v-2h15.63z" fill="#5e5e5e"/><path d="M1279.64-1417.33h-1.1l.18-.4-.28-1.6h1.2zM1340.5-1513.7l-14.26-4.63 14.26-4.64z" fill="#5e5e5e"/><path d="M1341.5-1512.32l-18.5-6 18.5-6.03zm-12.03-6l10.03 3.25v-6.52z" fill="#5e5e5e"/><use xlink:href="#N" transform="matrix(1,0,0,1,1340.851851851852,-1475.8350056022816) translate(0 14.222222222222223)"/><path d="M620-1114c0-3.3 2.7-6 6-6h148c3.3 0 6 2.7 6 6v48c0 3.3-2.7 6-6 6H626c-3.3 0-6-2.7-6-6z" stroke="#5e5e5e" stroke-width="3" fill="#fff"/><path d="M636-1120v60m128-60v60" stroke="#5e5e5e" stroke-width="3" fill="none"/><use xlink:href="#O" transform="matrix(1,0,0,1,645,-1115) translate(5.679012345679013 29.944444444444443)"/><use xlink:href="#P" transform="matrix(1,0,0,1,645,-1115) translate(51.2962962962963 29.944444444444443)"/><path d="M420-1634c0-3.3 2.7-6 6-6h148c3.3 0 6 2.7 6 6v48c0 3.3-2.7 6-6 6H426c-3.3 0-6-2.7-6-6z" stroke="#5e5e5e" stroke-width="3" fill="#fff"/><path d="M436-1640v60m128-60v60" stroke="#5e5e5e" stroke-width="3" fill="none"/><use xlink:href="#a" transform="matrix(1,0,0,1,445,-1635) translate(12.438271604938272 29.444444444444443)"/><use xlink:href="#c" transform="matrix(1,0,0,1,445,-1635) translate(49.47530864197531 29.444444444444443)"/><path d="M420-1532.33c0-3.32 2.7-6 6-6h148c3.3 0 6 2.68 6 6v48c0 3.3-2.7 6-6 6H426c-3.3 0-6-2.7-6-6z" stroke="#5e5e5e" stroke-width="3" fill="#fff"/><use xlink:href="#Q" transform="matrix(1,0,0,1,425,-1533.3333333333333) translate(15.216049382716058 30.27777777777778)"/><use xlink:href="#R" transform="matrix(1,0,0,1,425,-1533.3333333333333) translate(70.70987654320987 30.27777777777778)"/><path d="M500-1677.5v17.5" stroke="#5e5e5e" stroke-width="2" fill="none"/><path d="M501-1677.47h-2v-1.03h2z" fill="#5e5e5e"/><path d="M500-1644.74l-4.64-14.26h9.28z" stroke="#5e5e5e" stroke-width="2" fill="#5e5e5e"/><path d="M500-1577.5v19.16" stroke="#5e5e5e" stroke-width="2" fill="none"/><path d="M501-1577.47h-2v-1.03h2z" fill="#5e5e5e"/><path d="M500-1543.07l-4.64-14.27h9.28z" stroke="#5e5e5e" stroke-width="2" fill="#5e5e5e"/><path d="M500-1475.83v15.83" stroke="#5e5e5e" stroke-width="2" fill="none"/><path d="M501-1475.8h-2v-1.03h2z" fill="#5e5e5e"/><path d="M500-1444.74l-4.64-14.26h9.28z" stroke="#5e5e5e" stroke-width="2" fill="#5e5e5e"/><path d="M620-1204c0-3.3 2.7-6 6-6h148c3.3 0 6 2.7 6 6v51.33c0 3.32-2.7 6-6 6H626c-3.3 0-6-2.68-6-6z" stroke="#5e5e5e" stroke-width="3" fill="#fff"/><path d="M636-1210v63.33M764-1210v63.33" stroke="#5e5e5e" stroke-width="3" fill="none"/><use xlink:href="#O" transform="matrix(1,0,0,1,645,-1205) translate(19.845679012345677 18.111111111111114)"/><use xlink:href="#S" transform="matrix(1,0,0,1,645,-1205) translate(65.46296296296296 18.111111111111114)"/><use xlink:href="#T" transform="matrix(1,0,0,1,645,-1205) translate(25.98765432098765 44.777777777777786)"/><path d="M700-1144.17v4.17" stroke="#5e5e5e" stroke-width="2" fill="none"/><path d="M701-1144.14h-2v-1.03h2z" fill="#5e5e5e"/><path d="M700-1124.74l-4.64-14.26h9.28z" stroke="#5e5e5e" stroke-width="2" fill="#5e5e5e"/><path d="M694.5-992.6c3.04-1.32 7.96-1.32 11 0l69 30.2c3.04 1.32 3.04 3.48 0 4.8l-69 30.2c-3.04 1.32-7.96 1.32-11 0l-69-30.2c-3.04-1.32-3.04-3.48 0-4.8z" stroke="#5e5e5e" stroke-width="3" fill="#fff"/><use xlink:href="#U" transform="matrix(1,0,0,1,625,-990) translate(22.654320987654316 21.111111111111114)"/><use xlink:href="#V" transform="matrix(1,0,0,1,625,-990) translate(105.24691358024691 21.111111111111114)"/><use xlink:href="#T" transform="matrix(1,0,0,1,625,-990) translate(45.98765432098765 47.777777777777786)"/><path d="M700-1057.5v44.05" stroke="#5e5e5e" stroke-width="2" fill="none"/><path d="M701-1057.47h-2v-1.03h2z" fill="#5e5e5e"/><path d="M700-998.2l-4.64-14.25h9.28z" stroke="#5e5e5e" stroke-width="2" fill="#5e5e5e"/><path d="M701-880h-2v-2.6h2zm0-23.94h-2v-20.1h2z" fill="#5e5e5e"/><path d="M701-924.02h-2v-1l2-.05zM700-864.74L695.36-879h9.28z" fill="#5e5e5e"/><path d="M700-861.5l-6-18.5h12zm-3.26-16.5l3.26 10.03 3.26-10.03z" fill="#5e5e5e"/><use xlink:href="#W" transform="matrix(1,0,0,1,686.6913580246913,-903.9415232890502) translate(0 14.222222222222223)"/><path d="M1008-920c17.67 0 32 14.18 32 31.67 0 17.5-14.33 31.66-32 31.66h-96c-17.67 0-32-14.17-32-31.66 0-17.5 14.33-31.67 32-31.67z" stroke="#5e5e5e" stroke-width="3" fill="#fff"/><use xlink:href="#u" transform="matrix(1,0,0,1,885.0000000000001,-914.9999999999999) translate(51.60493827160494 31.27777777777778)"/><path d="M957.55-960.08l2.53 2.53.92 3.42V-940h-2v-13.87l-.7-2.64-1.8-1.8-2.63-.7h-50.23v-2h50.5zM779.15-959v-2h93.87v2z" fill="#5e5e5e"/><path d="M779.2-959h-1.48l.8-1.83-.18-.17h.85zM960-924.74L955.36-939h9.28z" fill="#5e5e5e"/><path d="M960-921.5l-6-18.5h12zm-3.26-16.5l3.26 10.03 3.26-10.03z" fill="#5e5e5e"/><use xlink:href="#l" transform="matrix(1,0,0,1,873.0222905457316,-970.6666666666666) translate(0 14.222222222222223)"/><path d="M1288-1100c17.67 0 32 14.18 32 31.67 0 17.5-14.33 31.66-32 31.66h-96c-17.67 0-32-14.17-32-31.66 0-17.5 14.33-31.67 32-31.67z" stroke="#5e5e5e" stroke-width="3" fill="#fff"/><use xlink:href="#X" transform="matrix(1,0,0,1,1165,-1095) translate(29.413580246913583 31.27777777777778)"/><use xlink:href="#Y" transform="matrix(1,0,0,1,1165,-1095) translate(72.56172839506172 31.27777777777778)"/><path d="M1160-992.33c0-3.32 2.7-6 6-6h148c3.3 0 6 2.68 6 6v48c0 3.3-2.7 6-6 6h-148c-3.3 0-6-2.7-6-6z" stroke="#5e5e5e" stroke-width="3" fill="#fff"/><use xlink:href="#Z" transform="matrix(1,0,0,1,1172,-986.3333333333333) translate(11.91975308641976 22.27777777777778)"/><use xlink:href="#aa" transform="matrix(1,0,0,1,1172,-986.3333333333333) translate(46.42592592592593 22.27777777777778)"/><path d="M1240-1034.17v15.83" stroke="#5e5e5e" stroke-width="2" fill="none"/><path d="M1241-1034.14h-2v-1.03h2z" fill="#5e5e5e"/><path d="M1240-1003.07l-4.64-14.27h9.28z" stroke="#5e5e5e" stroke-width="2" fill="#5e5e5e"/><path d="M1288-900c17.67 0 32 14.18 32 31.67 0 17.5-14.33 31.66-32 31.66h-96c-17.67 0-32-14.17-32-31.66 0-17.5 14.33-31.67 32-31.67z" stroke="#5e5e5e" stroke-width="3" fill="#fff"/><use xlink:href="#ab" transform="matrix(1,0,0,1,1165,-895) translate(49.75308641975309 31.27777777777778)"/><path d="M1240-935.83V-920" stroke="#5e5e5e" stroke-width="2" fill="none"/><path d="M1241-935.8h-2v-1.03h2z" fill="#5e5e5e"/><path d="M1240-904.74l-4.64-14.26h9.28z" stroke="#5e5e5e" stroke-width="2" fill="#5e5e5e"/><path d="M1508-1100c17.67 0 32 14.18 32 31.67 0 17.5-14.33 31.66-32 31.66h-96c-17.67 0-32-14.17-32-31.66 0-17.5 14.33-31.67 32-31.67z" stroke="#5e5e5e" stroke-width="3" fill="#fff"/><use xlink:href="#X" transform="matrix(1,0,0,1,1385,-1095) translate(26.26543209876543 31.27777777777778)"/><use xlink:href="#ac" transform="matrix(1,0,0,1,1385,-1095) translate(69.41358024691357 31.27777777777778)"/><path d="M1380-992.33c0-3.32 2.7-6 6-6h148c3.3 0 6 2.68 6 6v48c0 3.3-2.7 6-6 6h-148c-3.3 0-6-2.7-6-6z" stroke="#5e5e5e" stroke-width="3" fill="#fff"/><use xlink:href="#Z" transform="matrix(1,0,0,1,1392,-986.3333333333333) translate(28.555555555555557 22.27777777777778)"/><use xlink:href="#ad" transform="matrix(1,0,0,1,1392,-986.3333333333333) translate(63.06172839506173 22.27777777777778)"/><path d="M1460-1034.17v15.83" stroke="#5e5e5e" stroke-width="2" fill="none"/><path d="M1461-1034.14h-2v-1.03h2z" fill="#5e5e5e"/><path d="M1460-1003.07l-4.64-14.27h9.28z" stroke="#5e5e5e" stroke-width="2" fill="#5e5e5e"/><path d="M1508-900c17.67 0 32 14.18 32 31.67 0 17.5-14.33 31.66-32 31.66h-96c-17.67 0-32-14.17-32-31.66 0-17.5 14.33-31.67 32-31.67z" stroke="#5e5e5e" stroke-width="3" fill="#fff"/><g><use xlink:href="#ab" transform="matrix(1,0,0,1,1385,-895) translate(49.75308641975309 31.27777777777778)"/></g><path d="M1460-935.83V-920" stroke="#5e5e5e" stroke-width="2" fill="none"/><path d="M1461-935.8h-2v-1.03h2z" fill="#5e5e5e"/><path d="M1460-904.74l-4.64-14.26h9.28z" stroke="#5e5e5e" stroke-width="2" fill="#5e5e5e"/><path d="M1728-1100c17.67 0 32 14.18 32 31.67 0 17.5-14.33 31.66-32 31.66h-96c-17.67 0-32-14.17-32-31.66 0-17.5 14.33-31.67 32-31.67z" stroke="#5e5e5e" stroke-width="3" fill="#fff"/><g><use xlink:href="#X" transform="matrix(1,0,0,1,1605,-1095) translate(30.030864197530867 31.27777777777778)"/><use xlink:href="#ae" transform="matrix(1,0,0,1,1605,-1095) translate(73.17901234567901 31.27777777777778)"/></g><path d="M1600-994c0-3.3 2.7-6 6-6h148c3.3 0 6 2.7 6 6v48c0 3.3-2.7 6-6 6h-148c-3.3 0-6-2.7-6-6z" stroke="#5e5e5e" stroke-width="3" fill="#fff"/><g><use xlink:href="#af" transform="matrix(1,0,0,1,1612,-988) translate(40.561728395061735 22.27777777777778)"/><use xlink:href="#ag" transform="matrix(1,0,0,1,1612,-988) translate(63.9567901234568 22.27777777777778)"/><use xlink:href="#ah" transform="matrix(1,0,0,1,1612,-988) translate(83.0925925925926 22.27777777777778)"/></g><path d="M1680-1034.17v14.17" stroke="#5e5e5e" stroke-width="2" fill="none"/><path d="M1681-1034.14h-2v-1.03h2z" fill="#5e5e5e"/><path d="M1680-1004.74l-4.64-14.26h9.28z" stroke="#5e5e5e" stroke-width="2" fill="#5e5e5e"/><path d="M1728-900c17.67 0 32 14.18 32 31.67 0 17.5-14.33 31.66-32 31.66h-96c-17.67 0-32-14.17-32-31.66 0-17.5 14.33-31.67 32-31.67z" stroke="#5e5e5e" stroke-width="3" fill="#fff"/><g><use xlink:href="#ab" transform="matrix(1,0,0,1,1605,-895) translate(49.75308641975309 31.27777777777778)"/></g><path d="M1680-937.5v17.5" stroke="#5e5e5e" stroke-width="2" fill="none"/><path d="M1681-937.47h-2v-1.03h2z" fill="#5e5e5e"/><path d="M1680-904.74l-4.64-14.26h9.28z" stroke="#5e5e5e" stroke-width="2" fill="#5e5e5e"/><path d="M1508-700c17.67 0 32 14.18 32 31.67 0 17.5-14.33 31.66-32 31.66h-96c-17.67 0-32-14.17-32-31.66 0-17.5 14.33-31.67 32-31.67z" stroke="#5e5e5e" stroke-width="3" fill="#fff"/><g><use xlink:href="#X" transform="matrix(1,0,0,1,1385,-695) translate(33.08641975308642 31.27777777777778)"/><use xlink:href="#ai" transform="matrix(1,0,0,1,1385,-695) translate(76.23456790123456 31.27777777777778)"/></g><path d="M1380-590.67c0-3.3 2.7-6 6-6h148c3.3 0 6 2.7 6 6v48c0 3.32-2.7 6-6 6h-148c-3.3 0-6-2.68-6-6z" stroke="#5e5e5e" stroke-width="3" fill="#fff"/><g><use xlink:href="#aj" transform="matrix(1,0,0,1,1392,-584.6666666666665) translate(34.60493827160494 22.27777777777778)"/><use xlink:href="#ag" transform="matrix(1,0,0,1,1392,-584.6666666666665) translate(58 22.27777777777778)"/><use xlink:href="#ak" transform="matrix(1,0,0,1,1392,-584.6666666666665) translate(77.1358024691358 22.27777777777778)"/></g><path d="M1460-634.17v17.5" stroke="#5e5e5e" stroke-width="2" fill="none"/><path d="M1461-634.14h-2v-1.03h2z" fill="#5e5e5e"/><path d="M1460-601.4l-4.64-14.27h9.28z" stroke="#5e5e5e" stroke-width="2" fill="#5e5e5e"/><path d="M1508-496.67c17.67 0 32 14.18 32 31.67 0 17.5-14.33 31.67-32 31.67h-96c-17.67 0-32-14.18-32-31.67 0-17.5 14.33-31.67 32-31.67z" stroke="#5e5e5e" stroke-width="3" fill="#fff"/><g><use xlink:href="#ab" transform="matrix(1,0,0,1,1385,-491.66666666666646) translate(49.75308641975309 31.27777777777778)"/></g><path d="M1460-534.17v17.5" stroke="#5e5e5e" stroke-width="2" fill="none"/><path d="M1461-534.14h-2v-1.03h2z" fill="#5e5e5e"/><path d="M1460-501.4l-4.64-14.27h9.28z" stroke="#5e5e5e" stroke-width="2" fill="#5e5e5e"/><defs><path fill="#333" d="M177-190C167-65 218 103 67 71c-23-6-38-20-44-43l32-5c15 47 100 32 89-28v-30C133-14 115 1 83 1 29 1 15-40 15-95c0-56 16-97 71-98 29-1 48 16 59 35 1-10 0-23 2-32h30zM94-22c36 0 50-32 50-73 0-42-14-75-50-75-39 0-46 34-46 75s6 73 46 73" id="al"/><path fill="#333" d="M100-194c63 0 86 42 84 106H49c0 40 14 67 53 68 26 1 43-12 49-29l28 8c-11 28-37 45-77 45C44 4 14-33 15-96c1-61 26-98 85-98zm52 81c6-60-76-77-97-28-3 7-6 17-6 28h103" id="am"/><path fill="#333" d="M59-47c-2 24 18 29 38 22v24C64 9 27 4 27-40v-127H5v-23h24l9-43h21v43h35v23H59v120" id="an"/><g id="a"><use transform="matrix(0.06172839506172839,0,0,0.06172839506172839,0,0)" xlink:href="#al"/><use transform="matrix(0.06172839506172839,0,0,0.06172839506172839,12.345679012345679,0)" xlink:href="#am"/><use transform="matrix(0.06172839506172839,0,0,0.06172839506172839,24.691358024691358,0)" xlink:href="#an"/></g><path fill="#333" d="M143 0L79-87 56-68V0H24v-261h32v163l83-92h37l-77 82L181 0h-38" id="ao"/><path fill="#333" d="M179-190L93 31C79 59 56 82 12 73V49c39 6 53-20 64-50L1-190h34L92-34l54-156h33" id="ap"/><g id="b"><use transform="matrix(0.06172839506172839,0,0,0.06172839506172839,0,0)" xlink:href="#ao"/><use transform="matrix(0.06172839506172839,0,0,0.06172839506172839,11.11111111111111,0)" xlink:href="#am"/><use transform="matrix(0.06172839506172839,0,0,0.06172839506172839,23.45679012345679,0)" xlink:href="#ap"/></g><path fill="#333" d="M24-231v-30h32v30H24zM24 0v-190h32V0H24" id="aq"/><path fill="#333" d="M117-194c89-4 53 116 60 194h-32v-121c0-31-8-49-39-48C34-167 62-67 57 0H25l-1-190h30c1 10-1 24 2 32 11-22 29-35 61-36" id="ar"/><path fill="#333" d="M115-194c55 1 70 41 70 98S169 2 115 4C84 4 66-9 55-30l1 105H24l-1-265h31l2 30c10-21 28-34 59-34zm-8 174c40 0 45-34 45-75s-6-73-45-74c-42 0-51 32-51 76 0 43 10 73 51 73" id="as"/><path fill="#333" d="M84 4C-5 8 30-112 23-190h32v120c0 31 7 50 39 49 72-2 45-101 50-169h31l1 190h-30c-1-10 1-25-2-33-11 22-28 36-60 37" id="at"/><g id="c"><use transform="matrix(0.06172839506172839,0,0,0.06172839506172839,0,0)" xlink:href="#aq"/><use transform="matrix(0.06172839506172839,0,0,0.06172839506172839,4.876543209876543,0)" xlink:href="#ar"/><use transform="matrix(0.06172839506172839,0,0,0.06172839506172839,17.22222222222222,0)" xlink:href="#as"/><use transform="matrix(0.06172839506172839,0,0,0.06172839506172839,29.5679012345679,0)" xlink:href="#at"/><use transform="matrix(0.06172839506172839,0,0,0.06172839506172839,41.913580246913575,0)" xlink:href="#an"/></g><path fill="#333" d="M185-189c-5-48-123-54-124 2 14 75 158 14 163 119 3 78-121 87-175 55-17-10-28-26-33-46l33-7c5 56 141 63 141-1 0-78-155-14-162-118-5-82 145-84 179-34 5 7 8 16 11 25" id="au"/><path fill="#333" d="M100-194c62-1 85 37 85 99 1 63-27 99-86 99S16-35 15-95c0-66 28-99 85-99zM99-20c44 1 53-31 53-75 0-43-8-75-51-75s-53 32-53 75 10 74 51 75" id="av"/><path fill="#333" d="M114-163C36-179 61-72 57 0H25l-1-190h30c1 12-1 29 2 39 6-27 23-49 58-41v29" id="aw"/><g id="d"><use transform="matrix(0.06172839506172839,0,0,0.06172839506172839,0,0)" xlink:href="#au"/><use transform="matrix(0.06172839506172839,0,0,0.06172839506172839,14.814814814814813,0)" xlink:href="#an"/><use transform="matrix(0.06172839506172839,0,0,0.06172839506172839,20.98765432098765,0)" xlink:href="#av"/><use transform="matrix(0.06172839506172839,0,0,0.06172839506172839,33.33333333333333,0)" xlink:href="#aw"/><use transform="matrix(0.06172839506172839,0,0,0.06172839506172839,40.679012345679006,0)" xlink:href="#am"/></g><path fill="#333" d="M127-220V0H93v-220H8v-28h204v28h-85" id="ax"/><path fill="#333" d="M210-169c-67 3-38 105-44 169h-31v-121c0-29-5-50-35-48C34-165 62-65 56 0H25l-1-190h30c1 10-1 24 2 32 10-44 99-50 107 0 11-21 27-35 58-36 85-2 47 119 55 194h-31v-121c0-29-5-49-35-48" id="ay"/><g id="e"><use transform="matrix(0.06172839506172839,0,0,0.06172839506172839,0,0)" xlink:href="#ax"/><use transform="matrix(0.06172839506172839,0,0,0.06172839506172839,11.049382716049381,0)" xlink:href="#am"/><use transform="matrix(0.06172839506172839,0,0,0.06172839506172839,23.39506172839506,0)" xlink:href="#ay"/><use transform="matrix(0.06172839506172839,0,0,0.06172839506172839,41.85185185185185,0)" xlink:href="#as"/></g><g id="f"><use transform="matrix(0.06172839506172839,0,0,0.06172839506172839,0,0)" xlink:href="#au"/><use transform="matrix(0.06172839506172839,0,0,0.06172839506172839,14.814814814814813,0)" xlink:href="#an"/><use transform="matrix(0.06172839506172839,0,0,0.06172839506172839,20.98765432098765,0)" xlink:href="#av"/><use transform="matrix(0.06172839506172839,0,0,0.06172839506172839,33.33333333333333,0)" xlink:href="#aw"/><use transform="matrix(0.06172839506172839,0,0,0.06172839506172839,40.679012345679006,0)" xlink:href="#am"/></g><path fill="#333" d="M266 0h-40l-56-210L115 0H75L2-248h35L96-30l15-64 43-154h32l59 218 59-218h35" id="az"/><path fill="#333" d="M106-169C34-169 62-67 57 0H25v-261h32l-1 103c12-21 28-36 61-36 89 0 53 116 60 194h-32v-121c2-32-8-49-39-48" id="aA"/><g id="g"><use transform="matrix(0.06172839506172839,0,0,0.06172839506172839,0,0)" xlink:href="#ax"/><use transform="matrix(0.06172839506172839,0,0,0.06172839506172839,13.518518518518517,0)" xlink:href="#az"/><use transform="matrix(0.06172839506172839,0,0,0.06172839506172839,34.01234567901234,0)" xlink:href="#am"/><use transform="matrix(0.06172839506172839,0,0,0.06172839506172839,46.35802469135802,0)" xlink:href="#aq"/><use transform="matrix(0.06172839506172839,0,0,0.06172839506172839,51.23456790123456,0)" xlink:href="#al"/><use transform="matrix(0.06172839506172839,0,0,0.06172839506172839,63.58024691358025,0)" xlink:href="#aA"/><use transform="matrix(0.06172839506172839,0,0,0.06172839506172839,75.92592592592592,0)" xlink:href="#an"/></g><g id="h"><use transform="matrix(0.06172839506172839,0,0,0.06172839506172839,0,0)" xlink:href="#an"/><use transform="matrix(0.06172839506172839,0,0,0.06172839506172839,6.172839506172839,0)" xlink:href="#am"/><use transform="matrix(0.06172839506172839,0,0,0.06172839506172839,18.51851851851852,0)" xlink:href="#ay"/><use transform="matrix(0.06172839506172839,0,0,0.06172839506172839,36.9753086419753,0)" xlink:href="#as"/></g><path fill="#333" d="M108 0H70L1-190h34L89-25l56-165h34" id="aB"/><path fill="#333" d="M141-36C126-15 110 5 73 4 37 3 15-17 15-53c-1-64 63-63 125-63 3-35-9-54-41-54-24 1-41 7-42 31l-33-3c5-37 33-52 76-52 45 0 72 20 72 64v82c-1 20 7 32 28 27v20c-31 9-61-2-59-35zM48-53c0 20 12 33 32 33 41-3 63-29 60-74-43 2-92-5-92 41" id="aC"/><path fill="#333" d="M103-251c84 0 111 97 45 133-19 10-37 24-39 52H78c0-63 77-55 77-114 0-30-21-42-52-43-32 0-53 17-56 46l-32-2c7-45 34-72 88-72zM77 0v-35h34V0H77" id="aD"/><g id="i"><use transform="matrix(0.06172839506172839,0,0,0.06172839506172839,0,0)" xlink:href="#av"/><use transform="matrix(0.06172839506172839,0,0,0.06172839506172839,12.345679012345679,0)" xlink:href="#aB"/><use transform="matrix(0.06172839506172839,0,0,0.06172839506172839,23.45679012345679,0)" xlink:href="#am"/><use transform="matrix(0.06172839506172839,0,0,0.06172839506172839,35.80246913580247,0)" xlink:href="#aw"/><use transform="matrix(0.06172839506172839,0,0,0.06172839506172839,43.148148148148145,0)" xlink:href="#aA"/><use transform="matrix(0.06172839506172839,0,0,0.06172839506172839,55.49382716049382,0)" xlink:href="#am"/><use transform="matrix(0.06172839506172839,0,0,0.06172839506172839,67.8395061728395,0)" xlink:href="#aC"/><use transform="matrix(0.06172839506172839,0,0,0.06172839506172839,80.18518518518519,0)" xlink:href="#an"/><use transform="matrix(0.06172839506172839,0,0,0.06172839506172839,86.35802469135803,0)" xlink:href="#aD"/></g><g id="j"><use transform="matrix(0.06172839506172839,0,0,0.06172839506172839,0,0)" xlink:href="#aw"/><use transform="matrix(0.06172839506172839,0,0,0.06172839506172839,7.345679012345679,0)" xlink:href="#aq"/><use transform="matrix(0.06172839506172839,0,0,0.06172839506172839,12.222222222222221,0)" xlink:href="#ar"/><use transform="matrix(0.06172839506172839,0,0,0.06172839506172839,24.5679012345679,0)" xlink:href="#al"/></g><path fill="#333" d="M24 0v-261h32V0H24" id="aE"/><g id="k"><use transform="matrix(0.06172839506172839,0,0,0.06172839506172839,0,0)" xlink:href="#aC"/><use transform="matrix(0.06172839506172839,0,0,0.06172839506172839,12.345679012345679,0)" xlink:href="#aE"/><use transform="matrix(0.06172839506172839,0,0,0.06172839506172839,17.22222222222222,0)" xlink:href="#aC"/><use transform="matrix(0.06172839506172839,0,0,0.06172839506172839,29.5679012345679,0)" xlink:href="#aw"/><use transform="matrix(0.06172839506172839,0,0,0.06172839506172839,36.913580246913575,0)" xlink:href="#ay"/></g><path fill="#333" d="M146-102V0H94v-102L6-248h54l60 105 60-105h54" id="aF"/><path fill="#333" d="M185-48c-13 30-37 53-82 52C43 2 14-33 14-96s30-98 90-98c62 0 83 45 84 108H66c0 31 8 55 39 56 18 0 30-7 34-22zm-45-69c5-46-57-63-70-21-2 6-4 13-4 21h74" id="aG"/><path fill="#333" d="M137-138c1-29-70-34-71-4 15 46 118 7 119 86 1 83-164 76-172 9l43-7c4 19 20 25 44 25 33 8 57-30 24-41C81-84 22-81 20-136c-2-80 154-74 161-7" id="aH"/><g id="l"><use transform="matrix(0.04938271604938272,0,0,0.04938271604938272,0,0)" xlink:href="#aF"/><use transform="matrix(0.04938271604938272,0,0,0.04938271604938272,10.864197530864198,0)" xlink:href="#aG"/><use transform="matrix(0.04938271604938272,0,0,0.04938271604938272,20.74074074074074,0)" xlink:href="#aH"/></g><path fill="#333" d="M175 0L67-191c6 58 2 128 3 191H24v-248h59L193-55c-6-58-2-129-3-193h46V0h-61" id="aI"/><path fill="#333" d="M110-194c64 0 96 36 96 99 0 64-35 99-97 99-61 0-95-36-95-99 0-62 34-99 96-99zm-1 164c35 0 45-28 45-65 0-40-10-65-43-65-34 0-45 26-45 65 0 36 10 65 43 65" id="aJ"/><g id="m"><use transform="matrix(0.04938271604938272,0,0,0.04938271604938272,0,0)" xlink:href="#aI"/><use transform="matrix(0.04938271604938272,0,0,0.04938271604938272,12.790123456790125,0)" xlink:href="#aJ"/></g><g id="n"><use transform="matrix(0.06172839506172839,0,0,0.06172839506172839,0,0)" xlink:href="#av"/><use transform="matrix(0.06172839506172839,0,0,0.06172839506172839,12.345679012345679,0)" xlink:href="#as"/><use transform="matrix(0.06172839506172839,0,0,0.06172839506172839,24.691358024691358,0)" xlink:href="#am"/><use transform="matrix(0.06172839506172839,0,0,0.06172839506172839,37.03703703703704,0)" xlink:href="#ar"/></g><g id="o"><use transform="matrix(0.06172839506172839,0,0,0.06172839506172839,0,0)" xlink:href="#aB"/><use transform="matrix(0.06172839506172839,0,0,0.06172839506172839,11.11111111111111,0)" xlink:href="#aC"/><use transform="matrix(0.06172839506172839,0,0,0.06172839506172839,23.45679012345679,0)" xlink:href="#aE"/><use transform="matrix(0.06172839506172839,0,0,0.06172839506172839,28.333333333333336,0)" xlink:href="#aB"/><use transform="matrix(0.06172839506172839,0,0,0.06172839506172839,39.44444444444444,0)" xlink:href="#am"/></g><path fill="#333" d="M206 0h-36l-40-164L89 0H53L-1-190h32L70-26l43-164h34l41 164 42-164h31" id="aK"/><g id="p"><use transform="matrix(0.06172839506172839,0,0,0.06172839506172839,0,0)" xlink:href="#aK"/><use transform="matrix(0.06172839506172839,0,0,0.06172839506172839,15.987654320987653,0)" xlink:href="#aC"/><use transform="matrix(0.06172839506172839,0,0,0.06172839506172839,28.333333333333332,0)" xlink:href="#aq"/><use transform="matrix(0.06172839506172839,0,0,0.06172839506172839,33.20987654320987,0)" xlink:href="#an"/></g><path fill="#333" d="M96-169c-40 0-48 33-48 73s9 75 48 75c24 0 41-14 43-38l32 2c-6 37-31 61-74 61-59 0-76-41-82-99-10-93 101-131 147-64 4 7 5 14 7 22l-32 3c-4-21-16-35-41-35" id="aL"/><path fill="#333" d="M135-143c-3-34-86-38-87 0 15 53 115 12 119 90S17 21 10-45l28-5c4 36 97 45 98 0-10-56-113-15-118-90-4-57 82-63 122-42 12 7 21 19 24 35" id="aM"/><g id="q"><use transform="matrix(0.06172839506172839,0,0,0.06172839506172839,0,0)" xlink:href="#aL"/><use transform="matrix(0.06172839506172839,0,0,0.06172839506172839,11.11111111111111,0)" xlink:href="#aE"/><use transform="matrix(0.06172839506172839,0,0,0.06172839506172839,15.987654320987653,0)" xlink:href="#av"/><use transform="matrix(0.06172839506172839,0,0,0.06172839506172839,28.333333333333332,0)" xlink:href="#aM"/><use transform="matrix(0.06172839506172839,0,0,0.06172839506172839,39.44444444444444,0)" xlink:href="#am"/></g><g id="r"><use transform="matrix(0.06172839506172839,0,0,0.06172839506172839,0,0)" xlink:href="#aM"/><use transform="matrix(0.06172839506172839,0,0,0.06172839506172839,11.11111111111111,0)" xlink:href="#an"/><use transform="matrix(0.06172839506172839,0,0,0.06172839506172839,17.28395061728395,0)" xlink:href="#aC"/><use transform="matrix(0.06172839506172839,0,0,0.06172839506172839,29.629629629629626,0)" xlink:href="#aw"/><use transform="matrix(0.06172839506172839,0,0,0.06172839506172839,36.9753086419753,0)" xlink:href="#an"/></g><g id="s"><use transform="matrix(0.06172839506172839,0,0,0.06172839506172839,0,0)" xlink:href="#an"/><use transform="matrix(0.06172839506172839,0,0,0.06172839506172839,6.172839506172839,0)" xlink:href="#aq"/><use transform="matrix(0.06172839506172839,0,0,0.06172839506172839,11.049382716049383,0)" xlink:href="#ay"/><use transform="matrix(0.06172839506172839,0,0,0.06172839506172839,29.50617283950617,0)" xlink:href="#am"/><use transform="matrix(0.06172839506172839,0,0,0.06172839506172839,41.85185185185185,0)" xlink:href="#aw"/></g><g id="t"><use transform="matrix(0.06172839506172839,0,0,0.06172839506172839,0,0)" xlink:href="#aM"/><use transform="matrix(0.06172839506172839,0,0,0.06172839506172839,11.11111111111111,0)" xlink:href="#an"/><use transform="matrix(0.06172839506172839,0,0,0.06172839506172839,17.28395061728395,0)" xlink:href="#av"/><use transform="matrix(0.06172839506172839,0,0,0.06172839506172839,29.629629629629626,0)" xlink:href="#as"/></g><path fill="#333" d="M30 0v-248h187v28H63v79h144v27H63v87h162V0H30" id="aN"/><path fill="#333" d="M190 0L58-211 59 0H30v-248h39L202-35l-2-213h31V0h-41" id="aO"/><path fill="#333" d="M30-248c118-7 216 8 213 122C240-48 200 0 122 0H30v-248zM63-27c89 8 146-16 146-99s-60-101-146-95v194" id="aP"/><g id="u"><use transform="matrix(0.06172839506172839,0,0,0.06172839506172839,0,0)" xlink:href="#aN"/><use transform="matrix(0.06172839506172839,0,0,0.06172839506172839,14.814814814814813,0)" xlink:href="#aO"/><use transform="matrix(0.06172839506172839,0,0,0.06172839506172839,30.80246913580247,0)" xlink:href="#aP"/></g><g id="v"><use transform="matrix(0.06172839506172839,0,0,0.06172839506172839,0,0)" xlink:href="#aq"/><use transform="matrix(0.06172839506172839,0,0,0.06172839506172839,4.876543209876543,0)" xlink:href="#ar"/><use transform="matrix(0.06172839506172839,0,0,0.06172839506172839,17.22222222222222,0)" xlink:href="#as"/><use transform="matrix(0.06172839506172839,0,0,0.06172839506172839,29.5679012345679,0)" xlink:href="#at"/><use transform="matrix(0.06172839506172839,0,0,0.06172839506172839,41.913580246913575,0)" xlink:href="#an"/></g><path fill="#333" d="M205 0l-28-72H64L36 0H1l101-248h38L239 0h-34zm-38-99l-47-123c-12 45-31 82-46 123h93" id="aQ"/><path fill="#333" d="M233-177c-1 41-23 64-60 70L243 0h-38l-65-103H63V0H30v-248c88 3 205-21 203 71zM63-129c60-2 137 13 137-47 0-61-80-42-137-45v92" id="aR"/><g id="w"><use transform="matrix(0.06172839506172839,0,0,0.06172839506172839,0,0)" xlink:href="#au"/><use transform="matrix(0.06172839506172839,0,0,0.06172839506172839,14.814814814814813,0)" xlink:href="#ax"/><use transform="matrix(0.06172839506172839,0,0,0.06172839506172839,26.666666666666664,0)" xlink:href="#aQ"/><use transform="matrix(0.06172839506172839,0,0,0.06172839506172839,41.48148148148148,0)" xlink:href="#aR"/><use transform="matrix(0.06172839506172839,0,0,0.06172839506172839,57.03703703703703,0)" xlink:href="#ax"/></g><g id="y"><use transform="matrix(0.06172839506172839,0,0,0.06172839506172839,0,0)" xlink:href="#al"/><use transform="matrix(0.06172839506172839,0,0,0.06172839506172839,12.345679012345679,0)" xlink:href="#am"/><use transform="matrix(0.06172839506172839,0,0,0.06172839506172839,24.691358024691358,0)" xlink:href="#an"/></g><g id="z"><use transform="matrix(0.06172839506172839,0,0,0.06172839506172839,0,0)" xlink:href="#aq"/><use transform="matrix(0.06172839506172839,0,0,0.06172839506172839,4.876543209876543,0)" xlink:href="#ar"/><use transform="matrix(0.06172839506172839,0,0,0.06172839506172839,17.22222222222222,0)" xlink:href="#as"/><use transform="matrix(0.06172839506172839,0,0,0.06172839506172839,29.5679012345679,0)" xlink:href="#at"/><use transform="matrix(0.06172839506172839,0,0,0.06172839506172839,41.913580246913575,0)" xlink:href="#an"/></g><g id="A"><use transform="matrix(0.06172839506172839,0,0,0.06172839506172839,0,0)" xlink:href="#aN"/><use transform="matrix(0.06172839506172839,0,0,0.06172839506172839,14.814814814814813,0)" xlink:href="#aO"/><use transform="matrix(0.06172839506172839,0,0,0.06172839506172839,30.80246913580247,0)" xlink:href="#aP"/></g><path fill="#333" d="M85-194c31 0 48 13 60 33l-1-100h32l1 261h-30c-2-10 0-23-3-31C134-8 116 4 85 4 32 4 16-35 15-94c0-66 23-100 70-100zm9 24c-40 0-46 34-46 75 0 40 6 74 45 74 42 0 51-32 51-76 0-42-9-74-50-73" id="aS"/><g id="B"><use transform="matrix(0.06172839506172839,0,0,0.06172839506172839,0,0)" xlink:href="#aC"/><use transform="matrix(0.06172839506172839,0,0,0.06172839506172839,12.345679012345679,0)" xlink:href="#as"/><use transform="matrix(0.06172839506172839,0,0,0.06172839506172839,24.691358024691358,0)" xlink:href="#as"/><use transform="matrix(0.06172839506172839,0,0,0.06172839506172839,37.03703703703704,0)" xlink:href="#am"/><use transform="matrix(0.06172839506172839,0,0,0.06172839506172839,49.382716049382715,0)" xlink:href="#ar"/><use transform="matrix(0.06172839506172839,0,0,0.06172839506172839,61.72839506172839,0)" xlink:href="#aS"/></g><g id="C"><use transform="matrix(0.06172839506172839,0,0,0.06172839506172839,0,0)" xlink:href="#aS"/><use transform="matrix(0.06172839506172839,0,0,0.06172839506172839,12.345679012345679,0)" xlink:href="#aq"/><use transform="matrix(0.06172839506172839,0,0,0.06172839506172839,17.22222222222222,0)" xlink:href="#al"/><use transform="matrix(0.06172839506172839,0,0,0.06172839506172839,29.5679012345679,0)" xlink:href="#aq"/><use transform="matrix(0.06172839506172839,0,0,0.06172839506172839,34.44444444444444,0)" xlink:href="#an"/></g><g id="D"><use transform="matrix(0.06172839506172839,0,0,0.06172839506172839,0,0)" xlink:href="#aL"/><use transform="matrix(0.06172839506172839,0,0,0.06172839506172839,11.11111111111111,0)" xlink:href="#aE"/><use transform="matrix(0.06172839506172839,0,0,0.06172839506172839,15.987654320987653,0)" xlink:href="#am"/><use transform="matrix(0.06172839506172839,0,0,0.06172839506172839,28.333333333333332,0)" xlink:href="#aC"/><use transform="matrix(0.06172839506172839,0,0,0.06172839506172839,40.67901234567901,0)" xlink:href="#aw"/></g><g id="E"><use transform="matrix(0.06172839506172839,0,0,0.06172839506172839,0,0)" xlink:href="#ar"/><use transform="matrix(0.06172839506172839,0,0,0.06172839506172839,12.345679012345679,0)" xlink:href="#at"/><use transform="matrix(0.06172839506172839,0,0,0.06172839506172839,24.691358024691358,0)" xlink:href="#ay"/></g><g id="F"><use transform="matrix(0.06172839506172839,0,0,0.06172839506172839,0,0)" xlink:href="#au"/><use transform="matrix(0.06172839506172839,0,0,0.06172839506172839,14.814814814814813,0)" xlink:href="#an"/><use transform="matrix(0.06172839506172839,0,0,0.06172839506172839,20.98765432098765,0)" xlink:href="#aC"/><use transform="matrix(0.06172839506172839,0,0,0.06172839506172839,33.33333333333333,0)" xlink:href="#aw"/><use transform="matrix(0.06172839506172839,0,0,0.06172839506172839,40.679012345679006,0)" xlink:href="#an"/></g><g id="G"><use transform="matrix(0.06172839506172839,0,0,0.06172839506172839,0,0)" xlink:href="#ao"/><use transform="matrix(0.06172839506172839,0,0,0.06172839506172839,11.11111111111111,0)" xlink:href="#am"/><use transform="matrix(0.06172839506172839,0,0,0.06172839506172839,23.45679012345679,0)" xlink:href="#ap"/></g><path fill="#333" d="M182-130c37 4 62 22 62 59C244 23 116-4 24 0v-248c84 5 203-23 205 63 0 31-19 50-47 55zM76-148c40-3 101 13 101-30 0-44-60-28-101-31v61zm0 110c48-3 116 14 116-37 0-48-69-32-116-35v72" id="aT"/><path fill="#333" d="M147 0L96-86 75-71V0H25v-261h50v150l67-79h53l-66 74L201 0h-54" id="aU"/><path fill="#333" d="M135-194c53 0 70 44 70 98 0 56-19 98-73 100-31 1-45-17-59-34 3 33 2 69 2 105H25l-1-265h48c2 10 0 23 3 31 11-24 29-35 60-35zM114-30c33 0 39-31 40-66 0-38-9-64-40-64-56 0-55 130 0 130" id="aV"/><g id="H"><use transform="matrix(0.04938271604938272,0,0,0.04938271604938272,0,0)" xlink:href="#aT"/><use transform="matrix(0.04938271604938272,0,0,0.04938271604938272,12.790123456790125,0)" xlink:href="#aU"/><use transform="matrix(0.04938271604938272,0,0,0.04938271604938272,22.66666666666667,0)" xlink:href="#aH"/><use transform="matrix(0.04938271604938272,0,0,0.04938271604938272,32.543209876543216,0)" xlink:href="#aV"/></g><path fill="#333" d="M24 0v-248h195v40H76v63h132v40H76v65h150V0H24" id="aW"/><path fill="#333" d="M135-194c87-1 58 113 63 194h-50c-7-57 23-157-34-157-59 0-34 97-39 157H25l-1-190h47c2 12-1 28 3 38 12-26 28-41 61-42" id="aX"/><path fill="#333" d="M115-3C79 11 28 4 28-45v-112H4v-33h27l15-45h31v45h36v33H77v99c-1 23 16 31 38 25v30" id="aY"/><path fill="#333" d="M135-150c-39-12-60 13-60 57V0H25l-1-190h47c2 13-1 29 3 40 6-28 27-53 61-41v41" id="aZ"/><g id="I"><use transform="matrix(0.04938271604938272,0,0,0.04938271604938272,0,0)" xlink:href="#aW"/><use transform="matrix(0.04938271604938272,0,0,0.04938271604938272,11.851851851851853,0)" xlink:href="#aX"/><use transform="matrix(0.04938271604938272,0,0,0.04938271604938272,22.666666666666668,0)" xlink:href="#aY"/><use transform="matrix(0.04938271604938272,0,0,0.04938271604938272,28.543209876543212,0)" xlink:href="#aG"/><use transform="matrix(0.04938271604938272,0,0,0.04938271604938272,38.41975308641976,0)" xlink:href="#aZ"/></g><path fill="#333" d="M85 4C-2 5 27-109 22-190h50c7 57-23 150 33 157 60-5 35-97 40-157h50l1 190h-47c-2-12 1-28-3-38-12 25-28 42-61 42" id="ba"/><path fill="#333" d="M220-157c-53 9-28 100-34 157h-49v-107c1-27-5-49-29-50C55-147 81-57 75 0H25l-1-190h47c2 12-1 28 3 38 10-53 101-56 108 0 13-22 24-43 59-42 82 1 51 116 57 194h-49v-107c-1-25-5-48-29-50" id="bb"/><g id="J"><use transform="matrix(0.04938271604938272,0,0,0.04938271604938272,0,0)" xlink:href="#aI"/><use transform="matrix(0.04938271604938272,0,0,0.04938271604938272,12.790123456790125,0)" xlink:href="#ba"/><use transform="matrix(0.04938271604938272,0,0,0.04938271604938272,23.60493827160494,0)" xlink:href="#bb"/></g><path fill="#333" d="M136-208V0H84v-208H4v-40h212v40h-80" id="bc"/><g id="K"><use transform="matrix(0.04938271604938272,0,0,0.04938271604938272,0,0)" xlink:href="#bc"/><use transform="matrix(0.04938271604938272,0,0,0.04938271604938272,9.481481481481481,0)" xlink:href="#aG"/><use transform="matrix(0.04938271604938272,0,0,0.04938271604938272,19.358024691358025,0)" xlink:href="#bb"/><use transform="matrix(0.04938271604938272,0,0,0.04938271604938272,35.160493827160494,0)" xlink:href="#aV"/></g><path fill="#333" d="M275 0h-61l-44-196L126 0H64L0-248h53L97-49l45-199h58l43 199 44-199h52" id="bd"/><path fill="#333" d="M25-224v-37h50v37H25zM25 0v-190h50V0H25" id="be"/><path fill="#333" d="M195-6C206 82 75 100 31 46c-4-6-6-13-8-21l49-6c3 16 16 24 34 25 40 0 42-37 40-79-11 22-30 35-61 35-53 0-70-43-70-97 0-56 18-96 73-97 30 0 46 14 59 34l2-30h47zm-90-29c32 0 41-27 41-63 0-35-9-62-40-62-32 0-39 29-40 63 0 36 9 62 39 62" id="bf"/><path fill="#333" d="M114-157C55-157 80-60 75 0H25v-261h50l-1 109c12-26 28-41 61-42 86-1 58 113 63 194h-50c-7-57 23-157-34-157" id="bg"/><g id="L"><use transform="matrix(0.04938271604938272,0,0,0.04938271604938272,0,0)" xlink:href="#bd"/><use transform="matrix(0.04938271604938272,0,0,0.04938271604938272,16.39506172839506,0)" xlink:href="#aG"/><use transform="matrix(0.04938271604938272,0,0,0.04938271604938272,26.271604938271608,0)" xlink:href="#be"/><use transform="matrix(0.04938271604938272,0,0,0.04938271604938272,31.20987654320988,0)" xlink:href="#bf"/><use transform="matrix(0.04938271604938272,0,0,0.04938271604938272,42.02469135802469,0)" xlink:href="#bg"/><use transform="matrix(0.04938271604938272,0,0,0.04938271604938272,52.83950617283951,0)" xlink:href="#aY"/></g><path fill="#333" d="M169-182c-1-43-94-46-97-3 18 66 151 10 154 114 3 95-165 93-204 36-6-8-10-19-12-30l50-8c3 46 112 56 116 5-17-69-150-10-154-114-4-87 153-88 188-35 5 8 8 18 10 28" id="bh"/><path fill="#333" d="M133-34C117-15 103 5 69 4 32 3 11-16 11-54c-1-60 55-63 116-61 1-26-3-47-28-47-18 1-26 9-28 27l-52-2c7-38 36-58 82-57s74 22 75 68l1 82c-1 14 12 18 25 15v27c-30 8-71 5-69-32zm-48 3c29 0 43-24 42-57-32 0-66-3-65 30 0 17 8 27 23 27" id="bi"/><g id="M"><use transform="matrix(0.04938271604938272,0,0,0.04938271604938272,0,0)" xlink:href="#bh"/><use transform="matrix(0.04938271604938272,0,0,0.04938271604938272,11.851851851851853,0)" xlink:href="#aY"/><use transform="matrix(0.04938271604938272,0,0,0.04938271604938272,17.728395061728396,0)" xlink:href="#bi"/><use transform="matrix(0.04938271604938272,0,0,0.04938271604938272,27.60493827160494,0)" xlink:href="#aZ"/><use transform="matrix(0.04938271604938272,0,0,0.04938271604938272,34.51851851851852,0)" xlink:href="#aY"/></g><g id="N"><use transform="matrix(0.04938271604938272,0,0,0.04938271604938272,0,0)" xlink:href="#aJ"/><use transform="matrix(0.04938271604938272,0,0,0.04938271604938272,10.814814814814815,0)" xlink:href="#aY"/><use transform="matrix(0.04938271604938272,0,0,0.04938271604938272,16.691358024691358,0)" xlink:href="#bg"/><use transform="matrix(0.04938271604938272,0,0,0.04938271604938272,27.50617283950617,0)" xlink:href="#aG"/><use transform="matrix(0.04938271604938272,0,0,0.04938271604938272,37.382716049382715,0)" xlink:href="#aZ"/></g><g id="O"><use transform="matrix(0.06172839506172839,0,0,0.06172839506172839,0,0)" xlink:href="#aL"/><use transform="matrix(0.06172839506172839,0,0,0.06172839506172839,11.11111111111111,0)" xlink:href="#aC"/><use transform="matrix(0.06172839506172839,0,0,0.06172839506172839,23.45679012345679,0)" xlink:href="#aE"/><use transform="matrix(0.06172839506172839,0,0,0.06172839506172839,28.333333333333336,0)" xlink:href="#aL"/></g><g id="P"><use transform="matrix(0.06172839506172839,0,0,0.06172839506172839,0,0)" xlink:href="#aS"/><use transform="matrix(0.06172839506172839,0,0,0.06172839506172839,12.345679012345679,0)" xlink:href="#am"/><use transform="matrix(0.06172839506172839,0,0,0.06172839506172839,24.691358024691358,0)" xlink:href="#aE"/><use transform="matrix(0.06172839506172839,0,0,0.06172839506172839,29.5679012345679,0)" xlink:href="#aC"/><use transform="matrix(0.06172839506172839,0,0,0.06172839506172839,41.913580246913575,0)" xlink:href="#ap"/></g><g id="Q"><use transform="matrix(0.06172839506172839,0,0,0.06172839506172839,0,0)" xlink:href="#aM"/><use transform="matrix(0.06172839506172839,0,0,0.06172839506172839,11.11111111111111,0)" xlink:href="#an"/><use transform="matrix(0.06172839506172839,0,0,0.06172839506172839,17.28395061728395,0)" xlink:href="#av"/><use transform="matrix(0.06172839506172839,0,0,0.06172839506172839,29.629629629629626,0)" xlink:href="#aw"/><use transform="matrix(0.06172839506172839,0,0,0.06172839506172839,36.9753086419753,0)" xlink:href="#am"/></g><g id="R"><use transform="matrix(0.06172839506172839,0,0,0.06172839506172839,0,0)" xlink:href="#aK"/><use transform="matrix(0.06172839506172839,0,0,0.06172839506172839,15.987654320987653,0)" xlink:href="#am"/><use transform="matrix(0.06172839506172839,0,0,0.06172839506172839,28.333333333333332,0)" xlink:href="#aq"/><use transform="matrix(0.06172839506172839,0,0,0.06172839506172839,33.20987654320987,0)" xlink:href="#al"/><use transform="matrix(0.06172839506172839,0,0,0.06172839506172839,45.55555555555555,0)" xlink:href="#aA"/><use transform="matrix(0.06172839506172839,0,0,0.06172839506172839,57.90123456790123,0)" xlink:href="#an"/></g><g id="S"><use transform="matrix(0.06172839506172839,0,0,0.06172839506172839,0,0)" xlink:href="#an"/><use transform="matrix(0.06172839506172839,0,0,0.06172839506172839,6.172839506172839,0)" xlink:href="#av"/><use transform="matrix(0.06172839506172839,0,0,0.06172839506172839,18.51851851851852,0)" xlink:href="#an"/></g><g id="T"><use transform="matrix(0.06172839506172839,0,0,0.06172839506172839,0,0)" xlink:href="#as"/><use transform="matrix(0.06172839506172839,0,0,0.06172839506172839,12.345679012345679,0)" xlink:href="#aC"/><use transform="matrix(0.06172839506172839,0,0,0.06172839506172839,24.691358024691358,0)" xlink:href="#aL"/><use transform="matrix(0.06172839506172839,0,0,0.06172839506172839,35.80246913580247,0)" xlink:href="#ao"/><use transform="matrix(0.06172839506172839,0,0,0.06172839506172839,46.91358024691358,0)" xlink:href="#aM"/></g><path fill="#333" d="M101-234c-31-9-42 10-38 44h38v23H63V0H32v-167H5v-23h27c-7-52 17-82 69-68v24" id="bj"/><g id="U"><use transform="matrix(0.06172839506172839,0,0,0.06172839506172839,0,0)" xlink:href="#bj"/><use transform="matrix(0.06172839506172839,0,0,0.06172839506172839,6.172839506172839,0)" xlink:href="#aq"/><use transform="matrix(0.06172839506172839,0,0,0.06172839506172839,11.049382716049383,0)" xlink:href="#ar"/><use transform="matrix(0.06172839506172839,0,0,0.06172839506172839,23.395061728395063,0)" xlink:href="#aq"/><use transform="matrix(0.06172839506172839,0,0,0.06172839506172839,28.271604938271608,0)" xlink:href="#aM"/><use transform="matrix(0.06172839506172839,0,0,0.06172839506172839,39.38271604938272,0)" xlink:href="#aA"/><use transform="matrix(0.06172839506172839,0,0,0.06172839506172839,51.7283950617284,0)" xlink:href="#am"/><use transform="matrix(0.06172839506172839,0,0,0.06172839506172839,64.07407407407408,0)" xlink:href="#aS"/></g><g id="V"><use transform="matrix(0.06172839506172839,0,0,0.06172839506172839,0,0)" xlink:href="#aC"/><use transform="matrix(0.06172839506172839,0,0,0.06172839506172839,12.345679012345679,0)" xlink:href="#aE"/><use transform="matrix(0.06172839506172839,0,0,0.06172839506172839,17.22222222222222,0)" xlink:href="#aE"/></g><path fill="#333" d="M140-251c80 0 125 45 125 126S219 4 139 4C58 4 15-44 15-125s44-126 125-126zm-1 214c52 0 73-35 73-88 0-50-21-86-72-86-52 0-73 35-73 86s22 88 72 88" id="bk"/><g id="W"><use transform="matrix(0.04938271604938272,0,0,0.04938271604938272,0,0)" xlink:href="#aI"/><use transform="matrix(0.04938271604938272,0,0,0.04938271604938272,12.790123456790125,0)" xlink:href="#bk"/></g><path fill="#333" d="M33 0v-248h34V0H33" id="bl"/><g id="X"><use transform="matrix(0.06172839506172839,0,0,0.06172839506172839,0,0)" xlink:href="#bl"/><use transform="matrix(0.06172839506172839,0,0,0.06172839506172839,6.172839506172839,0)" xlink:href="#au"/><use transform="matrix(0.06172839506172839,0,0,0.06172839506172839,20.98765432098765,0)" xlink:href="#aR"/></g><path fill="#333" d="M27 0v-27h64v-190l-56 39v-29l58-41h29v221h61V0H27" id="bm"/><g id="Y"><use transform="matrix(0.06172839506172839,0,0,0.06172839506172839,0,0)" xlink:href="#bm"/><use transform="matrix(0.06172839506172839,0,0,0.06172839506172839,12.345679012345679,0)" xlink:href="#ay"/><use transform="matrix(0.06172839506172839,0,0,0.06172839506172839,30.80246913580247,0)" xlink:href="#aq"/><use transform="matrix(0.06172839506172839,0,0,0.06172839506172839,35.67901234567901,0)" xlink:href="#ar"/></g><g id="Z"><use transform="matrix(0.06172839506172839,0,0,0.06172839506172839,0,0)" xlink:href="#aq"/><use transform="matrix(0.06172839506172839,0,0,0.06172839506172839,4.876543209876543,0)" xlink:href="#ar"/><use transform="matrix(0.06172839506172839,0,0,0.06172839506172839,17.22222222222222,0)" xlink:href="#aL"/></g><g id="aa"><use transform="matrix(0.06172839506172839,0,0,0.06172839506172839,0,0)" xlink:href="#ay"/><use transform="matrix(0.06172839506172839,0,0,0.06172839506172839,18.456790123456788,0)" xlink:href="#aq"/><use transform="matrix(0.06172839506172839,0,0,0.06172839506172839,23.33333333333333,0)" xlink:href="#ar"/><use transform="matrix(0.06172839506172839,0,0,0.06172839506172839,35.679012345679006,0)" xlink:href="#at"/><use transform="matrix(0.06172839506172839,0,0,0.06172839506172839,48.02469135802468,0)" xlink:href="#an"/><use transform="matrix(0.06172839506172839,0,0,0.06172839506172839,54.197530864197525,0)" xlink:href="#am"/><use transform="matrix(0.06172839506172839,0,0,0.06172839506172839,66.5432098765432,0)" xlink:href="#aM"/></g><g id="ab"><use transform="matrix(0.06172839506172839,0,0,0.06172839506172839,0,0)" xlink:href="#bl"/><use transform="matrix(0.06172839506172839,0,0,0.06172839506172839,6.172839506172839,0)" xlink:href="#aR"/><use transform="matrix(0.06172839506172839,0,0,0.06172839506172839,22.160493827160494,0)" xlink:href="#aN"/><use transform="matrix(0.06172839506172839,0,0,0.06172839506172839,36.9753086419753,0)" xlink:href="#ax"/></g><path fill="#333" d="M101-251c68 0 85 55 85 127S166 4 100 4C33 4 14-52 14-124c0-73 17-127 87-127zm-1 229c47 0 54-49 54-102s-4-102-53-102c-51 0-55 48-55 102 0 53 5 102 54 102" id="bn"/><path fill="#333" d="M33 0v-38h34V0H33" id="bo"/><path fill="#333" d="M101-251c82-7 93 87 43 132L82-64C71-53 59-42 53-27h129V0H18c2-99 128-94 128-182 0-28-16-43-45-43s-46 15-49 41l-32-3c6-41 34-60 81-64" id="bp"/><path fill="#333" d="M54-142c48-35 137-8 131 61C196 18 31 33 14-55l32-4c7 23 22 37 52 37 35-1 51-22 54-58 4-55-73-65-99-34H22l8-134h141v27H59" id="bq"/><g id="ac"><use transform="matrix(0.06172839506172839,0,0,0.06172839506172839,0,0)" xlink:href="#bn"/><use transform="matrix(0.06172839506172839,0,0,0.06172839506172839,12.345679012345679,0)" xlink:href="#bo"/><use transform="matrix(0.06172839506172839,0,0,0.06172839506172839,18.51851851851852,0)" xlink:href="#bp"/><use transform="matrix(0.06172839506172839,0,0,0.06172839506172839,30.864197530864196,0)" xlink:href="#bq"/><use transform="matrix(0.06172839506172839,0,0,0.06172839506172839,43.20987654320987,0)" xlink:href="#aM"/></g><g id="ad"><use transform="matrix(0.06172839506172839,0,0,0.06172839506172839,0,0)" xlink:href="#an"/><use transform="matrix(0.06172839506172839,0,0,0.06172839506172839,6.172839506172839,0)" xlink:href="#aq"/><use transform="matrix(0.06172839506172839,0,0,0.06172839506172839,11.049382716049383,0)" xlink:href="#aL"/><use transform="matrix(0.06172839506172839,0,0,0.06172839506172839,22.160493827160494,0)" xlink:href="#ao"/><use transform="matrix(0.06172839506172839,0,0,0.06172839506172839,33.27160493827161,0)" xlink:href="#aM"/></g><path fill="#333" d="M212-179c-10-28-35-45-73-45-59 0-87 40-87 99 0 60 29 101 89 101 43 0 62-24 78-52l27 14C228-24 195 4 139 4 59 4 22-46 18-125c-6-104 99-153 187-111 19 9 31 26 39 46" id="br"/><g id="ae"><use transform="matrix(0.06172839506172839,0,0,0.06172839506172839,0,0)" xlink:href="#aQ"/><use transform="matrix(0.06172839506172839,0,0,0.06172839506172839,14.814814814814813,0)" xlink:href="#aP"/><use transform="matrix(0.06172839506172839,0,0,0.06172839506172839,30.80246913580247,0)" xlink:href="#br"/></g><g id="af"><use transform="matrix(0.06172839506172839,0,0,0.06172839506172839,0,0)" xlink:href="#aS"/><use transform="matrix(0.06172839506172839,0,0,0.06172839506172839,12.345679012345679,0)" xlink:href="#aE"/></g><path fill="#333" d="M18-150v-26h174v26H18zm0 90v-26h174v26H18" id="bs"/><use transform="matrix(0.06172839506172839,0,0,0.06172839506172839,0,0)" xlink:href="#bs" id="ag"/><use transform="matrix(0.06172839506172839,0,0,0.06172839506172839,0,0)" xlink:href="#bn" id="ah"/><g id="ai"><use transform="matrix(0.06172839506172839,0,0,0.06172839506172839,0,0)" xlink:href="#aS"/><use transform="matrix(0.06172839506172839,0,0,0.06172839506172839,12.345679012345679,0)" xlink:href="#aq"/><use transform="matrix(0.06172839506172839,0,0,0.06172839506172839,17.22222222222222,0)" xlink:href="#aB"/><use transform="matrix(0.06172839506172839,0,0,0.06172839506172839,28.333333333333332,0)" xlink:href="#bn"/></g><g id="aj"><use transform="matrix(0.06172839506172839,0,0,0.06172839506172839,0,0)" xlink:href="#aC"/><use transform="matrix(0.06172839506172839,0,0,0.06172839506172839,12.345679012345679,0)" xlink:href="#aE"/></g><g id="ak"><use transform="matrix(0.06172839506172839,0,0,0.06172839506172839,0,0)" xlink:href="#bj"/><use transform="matrix(0.06172839506172839,0,0,0.06172839506172839,5.7407407407407405,0)" xlink:href="#bj"/><use transform="matrix(0.06172839506172839,0,0,0.06172839506172839,11.913580246913579,0)" xlink:href="#aA"/></g></defs></g></svg>